<svg xmlns="http://www.w3.org/2000/svg" xmlns:xlink="http://www.w3.org/1999/xlink" viewBox="0 0 530.071 130">
  <defs>
    <style>
      .cls-1 {
        fill: none;
      }

      .cls-2, .cls-4 {
        fill: #c22034;
      }

      .cls-2 {
        font-size: 40px;
        font-family: CachetStd-Book, Cachet Std;
      }

      .cls-3, .cls-4 {
        stroke: none;
      }

      .cls-5 {
        filter: url(#Button_Shape);
      }
    </style>
    <filter id="Button_Shape" x="0" y="0" width="530.071" height="130" filterUnits="userSpaceOnUse">
      <feOffset dx="5" dy="5" input="SourceAlpha"/>
      <feGaussianBlur stdDeviation="5" result="blur"/>
      <feFlood flood-opacity="0.161"/>
      <feComposite operator="in" in2="blur"/>
      <feComposite in="SourceGraphic"/>
    </filter>
  </defs>
  <g id="BUTTON_Sign_up" data-name="BUTTON Sign up" transform="translate(-366 -1348)">
    <g class="cls-5" transform="matrix(1, 0, 0, 1, 366, 1348)">
      <g id="Button_Shape-2" data-name="Button Shape" class="cls-1" transform="translate(10 10)">
        <path class="cls-3" d="M51.028,0H449.044c28.182,0,51.028,22.386,51.028,50s-22.846,50-51.028,50H51.028C22.846,100,0,77.614,0,50S22.846,0,51.028,0Z"/>
        <path class="cls-4" d="M 449.0437316894531 98 C 455.6682739257812 98 462.0932922363281 96.72930908203125 468.1402893066406 94.22312164306641 C 473.9793395996094 91.80318450927734 479.22314453125 88.33899688720703 483.7260437011719 83.92681121826172 C 488.2260437011719 79.51744079589844 491.7584838867188 74.38418579101562 494.2252197265625 68.66962432861328 C 496.7774047851562 62.75712585449219 498.0714721679688 56.47574996948242 498.0714721679688 50 C 498.0714721679688 43.52425003051758 496.7774047851562 37.24287414550781 494.2252197265625 31.33037567138672 C 491.7584838867188 25.61581230163574 488.2260437011719 20.48256301879883 483.7260437011719 16.07318687438965 C 479.22314453125 11.66100025177002 473.9793395996094 8.196812629699707 468.1402893066406 5.776875019073486 C 462.0932922363281 3.270687580108643 455.6682739257812 2 449.0437316894531 2 L 51.0277214050293 2 C 44.40316009521484 2 37.97815704345703 3.270687580108643 31.9311580657959 5.776875019073486 C 26.09209632873535 8.196812629699707 20.8482837677002 11.66100025177002 16.3454704284668 16.07318687438965 C 11.84540843963623 20.48256301879883 8.312971115112305 25.61581230163574 5.846283435821533 31.33037567138672 C 3.294095754623413 37.24287414550781 2.000033378601074 43.52425003051758 2.000033378601074 50 C 2.000033378601074 56.47574996948242 3.294095754623413 62.75712585449219 5.846283435821533 68.66962432861328 C 8.312971115112305 74.38418579101562 11.84540843963623 79.51744079589844 16.3454704284668 83.92681121826172 C 20.8482837677002 88.33899688720703 26.09209632873535 91.80318450927734 31.9311580657959 94.22312164306641 C 37.97815704345703 96.72930908203125 44.40316009521484 98 51.0277214050293 98 L 449.0437316894531 98 M 449.0437316894531 100 L 51.0277214050293 100 C 22.84590911865234 100 3.332519554533064e-05 77.61425018310547 3.332519554533064e-05 50 C 3.332519554533064e-05 22.38574981689453 22.84590911865234 0 51.0277214050293 0 L 449.0437316894531 0 C 477.2255249023438 0 500.0714721679688 22.38574981689453 500.0714721679688 50 C 500.0714721679688 77.61425018310547 477.2255249023438 100 449.0437316894531 100 Z"/>
      </g>
    </g>
    <text id="CRÉER_UN_COMPTE" data-name="CRÉER UN COMPTE" class="cls-2" transform="translate(626.069 1422)"><tspan x="-164.7" y="0">CRÉER UN COMPTE</tspan></text>
  </g>
</svg>
