<svg xmlns="http://www.w3.org/2000/svg" xmlns:xlink="http://www.w3.org/1999/xlink" viewBox="0 0 980 1311">
  <defs>
    <style>
      .cls-1, .cls-11, .cls-15, .cls-3 {
        fill: #fff;
      }

      .cls-1, .cls-2 {
        stroke: #737373;
      }

      .cls-2, .cls-9 {
        fill: #ff7e00;
      }

      .cls-3, .cls-5, .cls-6, .cls-8 {
        font-size: 35px;
      }

      .cls-3, .cls-5, .cls-6, .cls-9 {
        font-family: CachetStd-Book, Cachet Std;
      }

      .cls-13, .cls-4, .cls-8 {
        font-family: CachetStd-Medium, Cachet Std;
        font-weight: 500;
      }

      .cls-12, .cls-5 {
        fill: #737373;
      }

      .cls-13, .cls-14, .cls-6, .cls-8 {
        fill: #8a2432;
      }

      .cls-7 {
        fill: #c22034;
      }

      .cls-9 {
        font-size: 90px;
      }

      .cls-10, .cls-17 {
        fill: none;
      }

      .cls-10 {
        stroke: #707070;
      }

      .cls-13 {
        font-size: 91px;
      }

      .cls-15 {
        font-size: 40px;
        font-family: CachetStd-Bold, Cachet Std;
        font-weight: 700;
      }

      .cls-16 {
        stroke: none;
      }

      .cls-18 {
        filter: url(#Button_Départ);
      }
    </style>
    <filter id="Button_Départ" x="672" y="418" width="278" height="130" filterUnits="userSpaceOnUse">
      <feOffset dx="5" dy="5" input="SourceAlpha"/>
      <feGaussianBlur stdDeviation="5" result="blur"/>
      <feFlood flood-opacity="0.161"/>
      <feComposite operator="in" in2="blur"/>
      <feComposite in="SourceGraphic"/>
    </filter>
  </defs>
  <g id="Card_GO" data-name="Card GO" transform="translate(-50 -272)">
    <g id="Card" class="cls-1" transform="translate(50 272)">
      <rect class="cls-16" width="980" height="1311" rx="25"/>
      <rect class="cls-17" x="0.5" y="0.5" width="979" height="1310" rx="24.5"/>
    </g>
    <g id="Status_card" data-name="Status card" class="cls-2" transform="translate(50 1458)">
      <path class="cls-16" d="M0,0H980a0,0,0,0,1,0,0V100a25,25,0,0,1-25,25H25A25,25,0,0,1,0,100V0A0,0,0,0,1,0,0Z"/>
      <path class="cls-17" d="M1,.5H979a.5.5,0,0,1,.5.5v99A24.5,24.5,0,0,1,955,124.5H25A24.5,24.5,0,0,1,.5,100V1A.5.5,0,0,1,1,.5Z"/>
    </g>
    <text id="_d_informations" data-name="+ d’informations" class="cls-3" transform="translate(980 1532)"><tspan x="-242.375" y="0">+ d’informations</tspan></text>
    <text id="Status_:_RETARDÉ" data-name="Status : RETARDÉ" class="cls-3" transform="translate(100 1532)"><tspan x="0" y="0">Status : </tspan><tspan class="cls-4" y="0">RETARDÉ</tspan></text>
    <g id="Arrival_Info" data-name="Arrival Info" transform="translate(0 404)">
      <text id="Terminal_:_S_Porte_:_" data-name="Terminal : S
Porte : —" class="cls-5" transform="translate(100 944)"><tspan x="0" y="0">Terminal :</tspan><tspan class="cls-4" y="0" xml:space="preserve"> S</tspan><tspan x="0" y="49">Porte :</tspan><tspan class="cls-4" y="49" xml:space="preserve"> —</tspan></text>
      <text id="Aéroport_d_Orly" data-name="Aéroport d’Orly" class="cls-6" transform="translate(149.756 886.329)"><tspan x="0" y="0">Aéroport d’Orly</tspan></text>
      <path id="ICON_Pin" data-name="ICON Pin" class="cls-7" d="M156.418,108.757a11.009,11.009,0,0,1,8.135-3.257,11.4,11.4,0,0,1,8.135,3.257,10.958,10.958,0,0,1,3.32,7.979,13.649,13.649,0,0,1-1.162,5.374,37.412,37.412,0,0,1-2.988,5.7c-1.162,1.791-2.324,3.42-3.32,5.048-1.162,1.628-1.992,2.768-2.822,3.745l-1.328,1.3c-.332-.326-.664-.814-1.328-1.466-.5-.651-1.494-1.791-2.822-3.582s-2.49-3.42-3.486-5.048a43.54,43.54,0,0,1-2.822-5.537,15.6,15.6,0,0,1-1.328-5.537C153.1,113.642,154.094,110.874,156.418,108.757Zm5.313,10.91a4.487,4.487,0,0,0,5.977,0,4.277,4.277,0,0,0,0-5.862,4.487,4.487,0,0,0-5.977,0,4.278,4.278,0,0,0,0,5.862Z" transform="translate(-52.6 754.5)"/>
      <text id="Samedi_16_Juin" data-name="Samedi
16 Juin" class="cls-8" transform="translate(358.201 793.201)"><tspan x="0" y="0">Samedi</tspan><tspan x="0" y="31">16 Juin</tspan></text>
      <text id="_17:20" data-name="17:20" class="cls-9" transform="translate(100 831)"><tspan x="0" y="0">17:20</tspan></text>
      <text id="ARRIVÉE" class="cls-5" transform="translate(174.075 732.699)"><tspan x="0" y="0">ARRIVÉE</tspan></text>
      <path id="ICON_Arrival" data-name="ICON Arrival" class="cls-7" d="M0,36.576H48.44v4.3H0ZM18.316,24.249,29.4,26.756l13.548,3.066a3.919,3.919,0,0,0,4.674-2.284c.549-1.725-.662-3.489-2.706-3.944L31.363,20.528l-7.02-19.41L19.414,0V17.813L6.755,14.955,4.38,9.965.691,9.126V20.264l4.1.926Z" transform="translate(100 700)"/>
    </g>
    <g id="Duration" transform="translate(-100.032 -241.584)">
      <line id="Inline_separator" data-name="Inline separator" class="cls-10" x2="880" transform="translate(200.032 1295.584)"/>
      <rect id="White" class="cls-11" width="175" height="50" transform="translate(553.032 1270.584)"/>
      <path id="ICON_Watch" data-name="ICON Watch" class="cls-12" d="M116.443,213.376a11.732,11.732,0,0,1,8.675-3.476,12.216,12.216,0,0,1,8.675,3.476,11.283,11.283,0,0,1,3.543,8.509,11.986,11.986,0,0,1-12.219,11.985,12.216,12.216,0,0,1-8.675-3.476,11.283,11.283,0,0,1-3.543-8.509A11.551,11.551,0,0,1,116.443,213.376Zm1.711,15.221A9.535,9.535,0,0,0,125,231.473a9.335,9.335,0,0,0,6.843-2.876,9.179,9.179,0,0,0,2.932-6.711,8.8,8.8,0,0,0-2.932-6.711A9.535,9.535,0,0,0,125,212.3a9.335,9.335,0,0,0-6.842,2.876,9.179,9.179,0,0,0-2.933,6.711A10.23,10.23,0,0,0,118.154,228.6Zm7.576-12.824V222l5.5,3.236-.978,1.558-6.354-3.835v-7.191Z" transform="translate(470.132 1069.685)"/>
      <text id="_3h00" data-name="3h00" class="cls-5" transform="translate(617.426 1303.828)"><tspan x="0" y="0">3h00</tspan></text>
    </g>
    <g id="Departure_Info" data-name="Departure Info">
      <text id="Terminal_:_2_Porte_:_A9" data-name="Terminal : 2
Porte : A9" class="cls-5" transform="translate(100 944)"><tspan x="0" y="0">Terminal :</tspan><tspan class="cls-4" y="0" xml:space="preserve"> 2</tspan><tspan x="0" y="49">Porte :</tspan><tspan class="cls-4" y="49" xml:space="preserve"> A9</tspan></text>
      <text id="Aéroport_Mohammed_V" data-name="Aéroport Mohammed V" class="cls-6" transform="translate(149.756 886.329)"><tspan x="0" y="0">Aéroport Mohammed V</tspan></text>
      <path id="ICON_Pin-2" data-name="ICON Pin" class="cls-7" d="M156.418,108.757a11.009,11.009,0,0,1,8.135-3.257,11.4,11.4,0,0,1,8.135,3.257,10.958,10.958,0,0,1,3.32,7.979,13.649,13.649,0,0,1-1.162,5.374,37.412,37.412,0,0,1-2.988,5.7c-1.162,1.791-2.324,3.42-3.32,5.048-1.162,1.628-1.992,2.768-2.822,3.745l-1.328,1.3c-.332-.326-.664-.814-1.328-1.466-.5-.651-1.494-1.791-2.822-3.582s-2.49-3.42-3.486-5.048a43.54,43.54,0,0,1-2.822-5.537,15.6,15.6,0,0,1-1.328-5.537C153.1,113.642,154.094,110.874,156.418,108.757Zm5.313,10.91a4.487,4.487,0,0,0,5.977,0,4.277,4.277,0,0,0,0-5.862,4.487,4.487,0,0,0-5.977,0,4.278,4.278,0,0,0,0,5.862Z" transform="translate(-52.6 754.5)"/>
      <text id="Samedi_16_Juin-2" data-name="Samedi
16 Juin" class="cls-8" transform="translate(358.201 793.201)"><tspan x="0" y="0">Samedi</tspan><tspan x="0" y="31">16 Juin</tspan></text>
      <text id="_15:20" data-name="15:20" class="cls-9" transform="translate(100 831)"><tspan x="0" y="0">15:20</tspan></text>
      <text id="DÉPART" class="cls-5" transform="translate(174.075 732.699)"><tspan x="0" y="0">DÉPART</tspan></text>
      <path id="ICON_Departure" data-name="ICON Departure" class="cls-7" d="M861.581,1232.646a2.981,2.981,0,0,1,1.667,2.1,3.192,3.192,0,0,1-.476,2.57,3.792,3.792,0,0,1-2.144,1.635c-9.289,2.336-16.91,4.438-23.1,6.074L824.9,1248.3l-3.811,1.168c-.476-.935-2.62-4.439-6.192-10.512l3.573-.935,4.764,3.5,11.908-3.037-9.765-16.82,4.525-1.168,16.434,14.951,12.623-3.271A4.792,4.792,0,0,1,861.581,1232.646Zm-45.014,24.062h45.252v4.672H816.567Z" transform="translate(-714.446 -520.498)"/>
    </g>
    <line id="Inline_separator-2" data-name="Inline separator" class="cls-10" x2="880" transform="translate(100 650)"/>
    <text id="Numéro_de_confirmation_:_VTYQN5L_Numéro_de_vol_:_AT750_Siège_:_" data-name="Numéro de confirmation : VTYQN5L
Numéro de vol : AT750
Siège : —" class="cls-5" transform="translate(100.454 489)"><tspan x="0" y="0">Numéro de confirmation :</tspan><tspan class="cls-4" y="0" xml:space="preserve"> VTYQN5L</tspan><tspan x="0" y="49">Numéro de vol :</tspan><tspan class="cls-4" y="49" xml:space="preserve"> AT750</tspan><tspan x="0" y="98">Siège :</tspan><tspan class="cls-4" y="98" xml:space="preserve"> —</tspan></text>
    <g id="Title" transform="translate(-0.269 0.069)">
      <text id="Casablanca_Paris" data-name="Casablanca          Paris" class="cls-13" transform="translate(100.269 385)"><tspan x="0" y="0" xml:space="preserve">Casablanca          Paris</tspan></text>
      <path id="Flight" class="cls-14" d="M91.8,68.965,53.149,56.65V83.744l9.663,7.389v7.389L45.9,93.6,28.99,98.522V91.133l9.664-7.389V56.65L0,68.965V59.113l38.654-24.63V7.389a7.494,7.494,0,0,1,1.933-5.419C42.036.493,43.486,0,45.9,0s3.865.492,5.315,1.971,1.933,2.955,1.933,5.419V34.483L91.8,59.113Z" transform="translate(713.583 311.931) rotate(90)"/>
    </g>
    <g class="cls-18" transform="matrix(1, 0, 0, 1, 50, 272)">
      <rect id="Button_Départ-2" data-name="Button Départ" class="cls-7" width="248" height="100" rx="50" transform="translate(682 428)"/>
    </g>
    <text id="DÉPART-2" data-name="DÉPART" class="cls-15" transform="translate(856 764)"><tspan x="-73.82" y="0">DÉPART</tspan></text>
  </g>
</svg>
