<svg xmlns="http://www.w3.org/2000/svg" viewBox="0 0 50 34.091">
  <defs>
    <style>
      .cls-1 {
        fill: #737373;
      }
    </style>
  </defs>
  <path id="Eye_Icon" data-name="Eye Icon" class="cls-1" d="M712.973,634.673a26.678,26.678,0,0,1,30.455,0,27.143,27.143,0,0,1,9.773,12.273,26.007,26.007,0,0,1-9.773,12.273,27.458,27.458,0,0,1-15.227,4.773,25.776,25.776,0,0,1-15.227-4.773,27.143,27.143,0,0,1-9.773-12.273A27.144,27.144,0,0,1,712.973,634.673Zm7.273,20.455a11.027,11.027,0,0,0,7.955,3.409,10.661,10.661,0,0,0,7.955-3.409,12.02,12.02,0,0,0,3.409-7.955,10.661,10.661,0,0,0-3.409-7.955,12.019,12.019,0,0,0-7.955-3.409,10.661,10.661,0,0,0-7.955,3.409,12.02,12.02,0,0,0-3.409,7.955A11.027,11.027,0,0,0,720.245,655.127Zm3.182-12.955a6.591,6.591,0,1,1-2.046,4.773A6.541,6.541,0,0,1,723.427,642.173Z" transform="translate(-703.2 -629.9)"/>
</svg>
