<svg xmlns="http://www.w3.org/2000/svg" viewBox="0 0 860 150">
  <defs>
    <style>
      .cls-1 {
        fill: #fff;
      }

      .cls-2, .cls-5 {
        fill: #737373;
      }

      .cls-2, .cls-3 {
        font-size: 40px;
      }

      .cls-2 {
        font-family: CachetStd-Book, Cachet Std;
      }

      .cls-3 {
        fill: #c22034;
        font-family: CachetStd-Medium, Cachet Std;
        font-weight: 500;
      }

      .cls-4, .cls-5 {
        stroke: none;
      }
    </style>
  </defs>
  <g id="FORM_Nom" data-name="FORM Nom" transform="translate(-110 -500)">
    <g id="Form_Shape" data-name="Form Shape" class="cls-1" transform="translate(110 550)">
      <path class="cls-4" d="M 835 99.5 L 25 99.5 C 21.69233322143555 99.5 18.48377799987793 98.85233306884766 15.46366691589355 97.57489013671875 C 12.54622268676758 96.34088897705078 9.926111221313477 94.57433319091797 7.675889015197754 92.32411193847656 C 5.425666809082031 90.07389068603516 3.659111022949219 87.45378112792969 2.425111055374146 84.53633117675781 C 1.147666692733765 81.51622009277344 0.5 78.30766296386719 0.5 75 L 0.5 25 C 0.5 21.69233322143555 1.147666692733765 18.48377799987793 2.425111055374146 15.46366691589355 C 3.659111022949219 12.54622268676758 5.425666809082031 9.926111221313477 7.675889015197754 7.675889015197754 C 9.926111221313477 5.425666809082031 12.54622268676758 3.659111022949219 15.46366691589355 2.425111055374146 C 18.48377799987793 1.147666692733765 21.69233322143555 0.5 25 0.5 L 835 0.5 C 838.3076782226562 0.5 841.5162353515625 1.147666692733765 844.5363159179688 2.425111055374146 C 847.4537963867188 3.659111022949219 850.0739135742188 5.425666809082031 852.3240966796875 7.675889015197754 C 854.5743408203125 9.926111221313477 856.3408813476562 12.54622268676758 857.5748901367188 15.46366691589355 C 858.8523559570312 18.48377799987793 859.5 21.69233322143555 859.5 25 L 859.5 75 C 859.5 78.30766296386719 858.8523559570312 81.51622009277344 857.5748901367188 84.53633117675781 C 856.3408813476562 87.45378112792969 854.5743408203125 90.07389068603516 852.3240966796875 92.32411193847656 C 850.0739135742188 94.57433319091797 847.4537963867188 96.34088897705078 844.5363159179688 97.57489013671875 C 841.5162353515625 98.85233306884766 838.3076782226562 99.5 835 99.5 Z"/>
      <path class="cls-5" d="M 835 99 C 838.2404174804688 99 841.3833618164062 98.36555480957031 844.341552734375 97.11433410644531 C 847.1993408203125 95.90567016601562 849.76611328125 94.17500305175781 851.9705810546875 91.97055816650391 C 854.1749877929688 89.76611328125 855.9056396484375 87.19933319091797 857.1143188476562 84.341552734375 C 858.3655395507812 81.38333129882812 859 78.24044799804688 859 75 L 859 25 C 859 21.75955581665039 858.3655395507812 18.61666679382324 857.1143188476562 15.65844440460205 C 855.9056396484375 12.80066680908203 854.1749877929688 10.23388862609863 851.9705810546875 8.029444694519043 C 849.76611328125 5.824999809265137 847.1993408203125 4.094333171844482 844.341552734375 2.885666608810425 C 841.3833618164062 1.63444447517395 838.2404174804688 1 835 1 L 25 1 C 21.75955581665039 1 18.61666679382324 1.63444447517395 15.65844440460205 2.885666608810425 C 12.80066680908203 4.094333171844482 10.23388862609863 5.824999809265137 8.029444694519043 8.029444694519043 C 5.824999809265137 10.23388862609863 4.094333171844482 12.80066680908203 2.885666608810425 15.65844440460205 C 1.63444447517395 18.61666679382324 1 21.75955581665039 1 25 L 1 75 C 1 78.24044799804688 1.63444447517395 81.38333129882812 2.885666608810425 84.341552734375 C 4.094333171844482 87.19933319091797 5.824999809265137 89.76611328125 8.029444694519043 91.97055816650391 C 10.23388862609863 94.17500305175781 12.80066680908203 95.90567016601562 15.65844440460205 97.11433410644531 C 18.61666679382324 98.36555480957031 21.75955581665039 99 25 99 L 835 99 M 835 100 L 25 100 C 11.19288921356201 100 0 88.80711364746094 0 75 L 0 25 C 0 11.19288921356201 11.19288921356201 0 25 0 L 835 0 C 848.80712890625 0 860 11.19288921356201 860 25 L 860 75 C 860 88.80711364746094 848.80712890625 100 835 100 Z"/>
    </g>
    <text id="Nom" class="cls-2" transform="translate(136 612)"><tspan x="0" y="0">Nom</tspan></text>
    <text id="NOM-2" data-name="NOM" class="cls-3" transform="translate(110 528)"><tspan x="0" y="0">NOM</tspan></text>
  </g>
</svg>
