<svg xmlns="http://www.w3.org/2000/svg" viewBox="0 0 1080 315">
  <defs>
    <style>
      .cls-1 {
        fill: #c22034;
      }

      .cls-2 {
        fill: #fff;
      }
    </style>
  </defs>
  <g id="Header_Openning" data-name="Header Openning" transform="translate(0 -72)">
    <path id="Header_Path" data-name="Header Path" class="cls-1" d="M0,315H263.453C535.6,315,495.506,96.65,758.762,96.65H1080V0H0Z" transform="translate(0 72)"/>
    <path id="RAM_Logo" data-name="RAM Logo" class="cls-2" d="M164.033,89.083l10.516,32.394-12.208-8.824-4.11,2.961,21.273,15.472a41.721,41.721,0,0,1-44.36,1.33l-4.231,3.082a46.58,46.58,0,0,0,52.7-1.39h0L168.989,89.143Zm3.143,17.164-1.571-4.774-27.559,20,4.654-14.323-4.11-2.961-8.1,25.02A41.744,41.744,0,0,1,114.476,96.4a43.15,43.15,0,0,1,.967-8.945l-4.231-3.082a46.651,46.651,0,0,0,17.647,49.739h0Zm35.718-9.911a45.384,45.384,0,0,0-2.3-14.384H153.336l-1.571,4.774H185.79l-12.208,8.824,1.571,4.774,21.273-15.472a41.937,41.937,0,0,1-12.45,42.668l1.632,4.956A46.121,46.121,0,0,0,202.894,96.335Zm-8.28-16.741h5.2a46.543,46.543,0,0,0-43.453-29.855h0L141.733,94.7l4.11,2.961,10.516-32.394,4.654,14.323h5.016l-8.1-25.02A42.012,42.012,0,0,1,194.614,79.594ZM112,81.951l38.256,27.8,4.049-2.961-27.559-20h15.049l1.571-4.774h-26.29a41.856,41.856,0,0,1,35.113-27.2l1.632-4.956A46.552,46.552,0,0,0,112,81.951Zm51.25-68.413a6.768,6.768,0,1,0,12.389,5.077,2.484,2.484,0,0,0-1.45-2.78,2.523,2.523,0,0,0-3.2,1.33,2.437,2.437,0,0,0,.363,2.478s-.967.725-3.264-.181c-2.3-.967-2.478-2.115-2.478-2.115a2.561,2.561,0,0,0,1.994-1.511,2.523,2.523,0,0,0-1.33-3.2A2.435,2.435,0,0,0,163.248,13.538ZM176,35.657c-1.813-3.445-5.681-2.3-7.675,3.445,1.39.3,2.84.665,4.17,1.027C174.005,35.718,176,35.657,176,35.657Zm.967-7.736c3.626-2.78,5.681-4.835,8.884-4.835a6.31,6.31,0,0,1,5.077,2.055c1.148,1.269,1.994,3.2,1.994,6.285a8.855,8.855,0,0,1-1.994,6.1,16.192,16.192,0,0,1-5.016,3.505,4.125,4.125,0,0,0-2.417,4.11c5.318-.483,8.945-2.538,10.818-4.714a13.241,13.241,0,0,0,3.324-9,13.653,13.653,0,0,0-3.2-9.368,10.973,10.973,0,0,0-8.521-3.687,11.323,11.323,0,0,0-8.461,3.989,13.929,13.929,0,0,1-10.214,4.231C167.72,30.641,174.005,30.158,176.967,27.921Zm5.5,11.181c-.665-1.934-4.412-3.626-6.285,2.236,1.269.483,2.538.967,3.807,1.511C180.714,39.706,182.466,39.1,182.466,39.1Zm-34.509-.665c1.45-.181,2.961-.363,4.412-.483-1.692-7.313-6.285-9.428-8.521-5.5C143.848,32.515,146.567,33.119,147.958,38.437Zm8.34-12.873h0a12.746,12.746,0,0,0-2.961,4.835c1.33,1.027,2.961,4.351,2.961,4.351s1.632-3.324,2.961-4.351a11.9,11.9,0,0,0-2.961-4.835Zm3.928,12.45c1.511.121,2.961.242,4.412.483,1.33-5.318,4.11-5.983,4.11-5.983C166.511,28.586,161.918,30.7,160.226,38.014Zm-8.7-23.328,4.774-3.445,4.774,3.445-1.813-5.621,4.774-3.445h-5.923L156.3,0l-1.813,5.621h-5.923l4.774,3.445Zm4.774.483a3.9,3.9,0,0,0-3.868,3.868,3.856,3.856,0,0,0,3.868,3.868,3.9,3.9,0,0,0,3.868-3.868A3.856,3.856,0,0,0,156.3,15.169Zm25.867,36.987V46.838a55.891,55.891,0,0,0-51.733,0v5.318A50.858,50.858,0,0,1,156.3,45.146,51.462,51.462,0,0,1,182.164,52.156Zm-36.02-28.888a6.884,6.884,0,0,0,3.264-9.73,2.474,2.474,0,0,0-2.961-.967,2.4,2.4,0,0,0-1.33,3.2,2.561,2.561,0,0,0,1.994,1.511s-.181,1.209-2.478,2.115c-2.3.967-3.264.181-3.264.181a2.437,2.437,0,0,0,.363-2.478,2.4,2.4,0,0,0-3.2-1.33,2.448,2.448,0,0,0-1.45,2.78A6.8,6.8,0,0,0,146.144,23.268ZM136.6,35.657s1.994.06,3.445,4.472c1.39-.423,2.78-.725,4.17-1.027C142.337,33.361,138.469,32.212,136.6,35.657Zm-3.928,7.192c1.269-.544,2.538-1.088,3.807-1.511-1.874-5.8-5.681-4.11-6.285-2.236C130.129,39.1,131.882,39.706,132.667,42.849Zm-3.566,2.3a4.125,4.125,0,0,0-2.417-4.11,16.94,16.94,0,0,1-5.016-3.505,8.855,8.855,0,0,1-1.994-6.1,9.224,9.224,0,0,1,1.994-6.285,6.506,6.506,0,0,1,5.077-2.055c3.264,0,5.258,1.994,8.884,4.835,2.961,2.3,9.247,2.72,9.67-1.39A13.929,13.929,0,0,1,135.085,22.3a11.323,11.323,0,0,0-8.461-3.989A10.973,10.973,0,0,0,118.1,22a13.652,13.652,0,0,0-3.2,9.368,12.958,12.958,0,0,0,3.324,9C120.157,42.607,123.723,44.662,129.1,45.146Zm73.974,36.805a42.461,42.461,0,0,1,1.209,4.774h73.974c-4.231,4.11-6.164,6.829-18.07,6.829H237.161c-2.538,3.2-8.34,4.774-8.34,4.774H262c10.335,0,15.049-3.022,19.763-8.219l7.252-8.159h-85.94Zm47.08,23.268H227.129c-2.538,3.2-8.34,4.774-8.34,4.774h33.179c10.335,0,15.049-3.022,19.763-8.219l1.39-1.511h-6.708C263.148,103.285,260.187,105.219,250.155,105.219Zm-10.093,11.6H217.036c-2.538,3.2-8.34,4.774-8.34,4.774h33.179c10.335,0,15.049-3.022,19.763-8.219l1.39-1.511h-6.708C253.116,114.949,250.155,116.823,240.062,116.823ZM230.03,128.487H193.164a45.082,45.082,0,0,1-4.835,4.774h43.453c10.335,0,15.049-3.022,19.763-8.219l1.39-1.511h-6.708C243.023,126.553,240.062,128.487,230.03,128.487ZM103.9,121.658s-5.8-1.571-8.34-4.774H72.533c-10.032,0-12.994-1.934-16.2-4.956H49.628l1.39,1.511c4.714,5.2,9.428,8.219,19.763,8.219H103.9Zm15.532,6.829H82.566c-10.032,0-12.994-1.934-16.2-4.956H59.661l1.39,1.511c4.714,5.2,9.428,8.219,19.763,8.219h43.453A51.554,51.554,0,0,1,119.432,128.487Zm-35.6-30.1s-5.8-1.571-8.34-4.774H52.408c-11.966,0-13.9-2.659-18.07-6.829h73.974a42.456,42.456,0,0,1,1.209-4.774H23.641l7.252,8.159c4.714,5.2,9.428,8.219,19.763,8.219H83.835Zm10.032,11.6s-5.8-1.571-8.34-4.774H62.5c-10.032,0-12.994-1.934-16.2-4.956H39.6l1.39,1.511c4.714,5.2,9.428,8.219,19.763,8.219H93.867ZM32.887,227.964H26.844V214.91h6.285v2.84s.846-2.84,5.2-2.478v6.285s-4.654-.6-5.439,1.45v4.956Zm130.058,0v-5.016c.725-2.055,5.439-1.45,5.439-1.45v-6.285c-4.351-.3-5.2,2.478-5.2,2.478v-2.84H156.9V227.9h6.044ZM58.391,221.5s.3-6.769-8.34-6.769c0,0-8.34-.242-8.824,6.467,0,0-.121,7.494,8.945,7.071,0,.06,7.917.665,8.219-6.769Zm-8.219-3.2c2.478.121,2.357,3.143,2.357,3.143a2.436,2.436,0,0,1-2.538,2.6c-2.417-.121-2.538-2.72-2.538-2.72.3-3.264,2.72-3.022,2.72-3.022Zm217.811,3.2s.3-6.769-8.34-6.769c0,0-8.28-.242-8.824,6.467,0,0-.121,7.494,8.945,7.071,0,.06,7.917.665,8.219-6.769Zm-8.219-3.2c2.478.121,2.357,3.143,2.357,3.143a2.436,2.436,0,0,1-2.538,2.6,2.732,2.732,0,0,1-2.538-2.72c.3-3.264,2.72-3.022,2.72-3.022Zm-200.1-3.324L65.4,226.212H60.93v3.747h7.131c3.324.544,5.318-4.472,5.318-4.472L78.4,214.971H71.566l-2.115,6.467-2.357-6.467H59.661Zm31.971,0v1.692a8.312,8.312,0,0,0-5.016-2.115s-6.044-.3-6.285,6.588c0,0-.725,6.285,5.741,6.89,0,0,3.747.3,5.56-2.417v2.417H97.8V214.971H91.631Zm-2.115,3.445c2.659,0,2.357,3.143,2.357,3.143a2.6,2.6,0,0,1-2.659,2.72c-2.659,0-2.659-2.78-2.659-2.78.06-3.505,2.961-3.082,2.961-3.082Zm46.415-3.445v1.692a8.312,8.312,0,0,0-5.016-2.115s-6.044-.3-6.285,6.588c0,0-.725,6.285,5.741,6.89,0,0,3.747.3,5.56-2.417v2.417H142.1V214.971h-6.164Zm-2.115,3.445c2.659,0,2.357,3.143,2.357,3.143a2.6,2.6,0,0,1-2.659,2.72c-2.659,0-2.659-2.78-2.659-2.78.06-3.505,2.961-3.082,2.961-3.082Zm108.6,9.549v-5.016c.725-2.055,5.439-1.45,5.439-1.45v-6.285c-4.351-.3-5.2,2.478-5.2,2.478v-2.84h-6.346V227.9h6.1ZM225.98,214.971v1.692a8.312,8.312,0,0,0-5.016-2.115s-6.044-.3-6.285,6.588c0,0-.725,6.285,5.741,6.89,0,0,3.747.3,5.56-2.417v2.417h6.164V214.971H225.98Zm-2.115,3.445c2.659,0,2.357,3.143,2.357,3.143a2.6,2.6,0,0,1-2.659,2.72c-2.659,0-2.659-2.78-2.659-2.78.06-3.505,2.961-3.082,2.961-3.082Zm-122.081-5.741v15.351h6.406V212.674Zm44.42,2.3v13.054h6.406V214.971Zm0-2.659V214h6.406v-1.692Zm38.558,15.653h6.1v-6.89a1.8,1.8,0,0,1,1.934-1.692c1.813-.3,1.45,1.994,1.45,1.994v6.588h6.527v-7.071a1.811,1.811,0,0,1,1.813-1.571c1.511-.242,1.813,1.753,1.813,1.753v6.769h6.527v-9.609a4.433,4.433,0,0,0-4.472-3.566c-2.9-.6-5.439,2.6-5.439,2.6a5.052,5.052,0,0,0-4.714-2.6,5.884,5.884,0,0,0-5.439,3.143v-2.9H184.7v13.054Zm100.988-12.571a22.065,22.065,0,0,0-7.373-1.027s-7.011-.121-7.252,7.192c0,0,0,6.164,7.857,6.467,0,0,5.137,0,6.708-2.176v-3.022a9.6,9.6,0,0,1-4.714.967s-3.626.181-3.626-2.72a2.673,2.673,0,0,1,2.78-2.417,10.132,10.132,0,0,1,5.56.725v-3.989ZM53.073,182.94c1.813,6.708-1.934,10.093-3.989,10.274-2.055.121-2.9-.6-3.264-2.357-.3-1.632-.6-1.45-1.692-.6-5.983,3.989-14.867,5.258-21.7,5.923-14.746.665-9.972-3.868-14.565-4.049-1.209.06-1.571.786-2.357,2.478-.846,1.692-1.813,4.472-3.445,4.472-1.632.06-2.84-5.621-1.39-10.032.363,3.143.967,5.681,2.3,5.923,1.269.242,1.33-2.236,3.324-4.9,1.934-3.928,4.835-1.753,5.923-.3,2.357,2.3,5.2,1.692,10.818,1.692,9.428,0,20-4.412,24.053-5.923-.363,3.626,3.687,2.6,4.231,2.417.544-.242.06-1.027.06-1.571,0-.725,1.692-3.445,1.692-3.445ZM312.4,177.8c-.725,1.209-2.357,4.049-3.143,4.472,0,2.115.363,15.472-.121,16.378,1.269-2.176,3.626-4.835,3.445-6.89-.181-1.994.242-13.054-.181-13.961Zm-19.521,2.9-3.687,2.478,2.115,1.874,3.324-2.84-1.753-1.511Zm11,.363c-1.692-.846-2.417-1.027-1.692-3.445,0,0-3.2,2.417-2.961,4.049s.544,1.813.544,2.538l-.06,2.72s0,1.027-1.45,1.027l-11.362.121s-1.813,3.2-2.236,3.324c0,0,6.406,1.148,6.708,1.39-3.868.846-11.241,1.511-13.477,1.209,3.384-2.538,4.17-5.137,2.176-6.406-1.994-1.33-3.868-1.874-13.175,2.3a46.373,46.373,0,0,1,.06-6.406c.121-.363,1.39-.846,1.088-2.3s-1.692-2.72-1.33-3.807c-1.571,2.538-2.72,4.714-2.6,5.621.121.967.907,1.269.967,2.3l.121,5.379c-1.027.6-3.264,1.753-3.687,2.055-2.417.6-5.56-1.39-6.527-2.659-1.027-2.659-3.082-6.285-5.258-6.406-1.209-.06-3.082,3.264-3.868,4.533-.725,1.269-2.176,3.2-1.874,4.049s3.687,2.478,8.038,2.3c-1.874,1.934-12.389,4.412-14.323,4.533,6.225,1.209,11,.846,12.389.483s3.626-3.264,3.626-3.264c3.747,1.027,6.285,2.236,12.873,2.478a148.792,148.792,0,0,0,18.373-.483c3.566-.423,11.725-1.511,13.356-1.632s5.318-.6,5.862-.3l3.626-4.049s-7.011-1.33-7.615-1.874a7.12,7.12,0,0,0,1.45-4.9c.06-1.148-.242-1.39.242-2.055.544-.786,1.994-2.417,1.994-2.417ZM276.746,191.4c-.06,2.6-9.428,2.961-12.812,2.6,2.357-1.269,10.214-3.989,12.812-2.6Zm-26.29-1.39c-.242.423-1.33.363-2.055.242s-1.209-1.39-1.209-2.78c1.874-.423,3.505,1.269,3.264,2.538Zm-23.389-8.521a5.643,5.643,0,0,1,.181-2.84c-1.632.3-2.6,2.6-2.84,4.472s.544,1.934.665,2.84l.665,7.373a7.768,7.768,0,0,0-2.417,2.6c-3.022-.423-5.681-.121-6.648-.3,5.318,2.3,7.978,3.445,13.3,3.022s11.664-6.406,11.06-9.307c-.544-2.961-5.077-3.445-14.263,2.9a34.944,34.944,0,0,0,.3-8.038c1.33-.725,1.692-1.874,1.511-1.874a11.249,11.249,0,0,0-1.511-.846Zm8.884,11.785c-2.3,1.813-9,2.115-10.032,2.055,1.088-1.39,3.989-3.989,6.588-4.11s3.384,1.148,3.445,2.055Zm-25.867-14.988c-.3.544-2.78,4.654-2.78,4.654.242,3.505.725,13.3-.3,15.532,2.3-2.9,3.445-5.379,3.445-6.467,0,0-.06-13.175-.363-13.719Zm-10.758,1.874a6.84,6.84,0,0,1-.121-2.3c-.544.6-3.082,4.472-3.082,5.439,0,.907,1.269,1.209,1.269,1.934,0,0,.242,4.17.121,4.9-1.813,1.33-9.368,4.835-13.175,4.231-1.692-.242-1.874-2.478-1.934-3.868l.242-11.6a15.484,15.484,0,0,1-2.115,2.961l-.242,7.192a3.1,3.1,0,0,1-2.357,3.324c-2.357.846-6.588,2.6-11.906,0l-11.785-7.736s-.423-.6.242-.725c0,0,13.115-1.148,14.142-1.209.967-.06,1.33.3,1.088,1.33-.242.846-2.9,2.72-3.928,3.264,3.505-.967,7.192-3.384,6.89-6.95-.121-1.571-2.055-1.33-3.989-1.33,0,0-18.01-.846-18.01,4.956-.3,3.082.544,3.082,1.813,4.11l3.687,3.143c-.846,2.176-3.143,1.692-4.533.725a3.427,3.427,0,0,1-1.269-3.505c-8.945,3.566-12.51,4.533-18.191,4.472-5.621-.121-8.884-.242-10.939-3.143-1.088-1.45-4.533-1.874-6.285.786-1.994,2.659-3.445,3.687-4.351,3.505-1.33-.242-.544-4.593-.242-5.258s.06-1.33-.6-.181c-2.176,3.384-2.9,10.335,1.088,10.335,1.632,0,2.9-2.72,3.687-4.351.846-1.692,1.148-1.994,2.357-2.055,2.961-.06.363,5.258,14.2,5.077,7.615-.121,17.224-3.928,18.01-4.472.907,2.357,2.72,4.835,4.412,4.654s4.291-.907,4.774-4.049l.6-.181c2.478,1.994,6.406,5.258,12.027,5.318a10.3,10.3,0,0,0,9.126-5.621c.786,2.538,1.813,5.439,5.2,5.5s10.455-2.417,11.785-3.505c.483,2.538,1.148,3.868,3.022,3.928,1.148.06,2.961-2.9,3.445-4.714s1.874-5.379-.423-6.164c-1.45-.483-2.3.725-3.143.3-.363-.363-.3-1.632-.3-1.632l.181-2.659c.967-1.088,1.33-1.753,1.209-2.6-.181-.907-1.692-1.269-1.692-1.571Zm.181,12.208c2.236-.3,3.324,2.176,2.478,2.72-2.84.544-2.659-1.813-2.478-2.72Zm-85.215-10.637-3.687,2.72,2.417,1.209s2.357-1.813,3.324-1.753a6.873,6.873,0,0,1,2.417,1.269,36.7,36.7,0,0,1,3.687-2.72,6.08,6.08,0,0,0-2.115-1.511s-2.78,1.874-3.445,1.874a11.133,11.133,0,0,1-2.6-1.088Zm28.4,14.5a27.515,27.515,0,0,1-3.928,2.115l2.357,1.39s2.72-1.511,3.324-1.33a21.127,21.127,0,0,1,2.055,1.148l3.747-1.874-1.753-1.511s-2.9,1.45-3.566,1.39a10.738,10.738,0,0,1-2.236-1.33Zm-42-17.345c-.3.544-2.78,4.654-2.78,4.654.786,4.351,2.055,13.659.967,15.955a14.29,14.29,0,0,0,3.2-7.071s-1.148-12.933-1.39-13.538ZM59.479,194.966c3.445-1.39,9.851-1.209,10.455-1.994,2.78,2.357,4.714,3.445,7.434,3.928,6.648,1.148,10.153-2.84,11.483-2.3.483,2.538.242,4.231,2.6,4.533,1.571.242,2.176-1.994,2.659-3.807s2.3-5.741,0-6.527c-1.45-.483-2.3.725-3.143.3-.363-.363-.363-1.632-.363-1.632l.06-2.115a3.012,3.012,0,0,0,.967-2.72c-.121-.846-1.45-1.088-1.45-1.45a6.84,6.84,0,0,1-.121-2.3c-.544.6-3.022,4.472-3.022,5.439,0,.907,1.39.907,1.39,1.692,0,0,.121,3.928,0,4.654-1.813,1.269-8.7,3.989-11.241,1.269a9.646,9.646,0,0,1,4.049-1.874L82.2,185.6c-2.417-.6-11.845-2.055-16.257-1.148l-1.994,3.807s1.934.242,2.538.423a3.961,3.961,0,0,1,1.571,1.39c-4.049.06-9.972,1.45-12.45,2.961-2.538,1.511-7.675,5.741-8.521,5.077-.786-.665-.786-.181.3-3.989-1.33,1.027-3.082,4.9-1.209,5.621,3.324,1.39,9.549-4.472,13.3-4.774Zm31.487-2.357c2.236-.3,2.961,2.115,2.055,2.9-2.417.423-2.236-1.994-2.055-2.9Zm-18.373-3.264L70.9,187.412c.725-.06,4.956,0,5.56.363l-3.868,1.571Zm3.2-9.911-3.989,2.115,2.236,1.39,3.264-2.115-1.511-1.39Zm-64.062,1.45c-.907,0-1.934,1.813-2.357,1.934s-1.934-.665-3.384-1.209a20.99,20.99,0,0,1-3.445,2.961c.544.121,2.9.907,2.9.907a10.544,10.544,0,0,1,2.478-1.994c.725-.242,2.84.846,3.022.786.242-.06,3.324-2.478,3.324-2.478s-2.357-.846-2.538-.907ZM38.81,196.477c-.544-.121-2.357-1.33-2.9-1.209-.544.06-3.868,2.72-3.868,2.72l3.082,1.33a35.959,35.959,0,0,1,3.264-1.934c.363-.06,2.055,1.209,2.417,1.33.363.06,3.807-2.478,3.807-2.478a11.969,11.969,0,0,0-2.478-1.511c-.483-.121-2.84,1.753-3.324,1.753Zm19.521.121-2.961,1.45,1.45,1.753,3.082-1.874-1.571-1.33Z" transform="translate(49.974 115)"/>
  </g>
</svg>
