<svg xmlns="http://www.w3.org/2000/svg" viewBox="0 0 49.046 50">
  <defs>
    <style>
      .cls-1 {
        fill: #fff;
      }
    </style>
  </defs>
  <path id="ICON_Paramètres" data-name="ICON Paramètres" class="cls-1" d="M82.364,1176.9l5.25,4a1.481,1.481,0,0,1,.25,1.75l-5,8.75a1.113,1.113,0,0,1-1.5.5l-6.25-2.5a20.38,20.38,0,0,1-4.25,2.5l-1,6.5c-.25.75-.5,1-1.25,1h-10a1.276,1.276,0,0,1-1.25-1l-1-6.5a14.635,14.635,0,0,1-4.25-2.5l-6.25,2.5a1.113,1.113,0,0,1-1.5-.5l-5-8.75a1.206,1.206,0,0,1,.25-1.75l5.25-4v-5l-5.25-4a1.481,1.481,0,0,1-.25-1.75l5-8.75a1.113,1.113,0,0,1,1.5-.5l6.25,2.5a20.374,20.374,0,0,1,4.25-2.5l1-6.5c.25-.75.5-1,1.25-1h10a1.276,1.276,0,0,1,1.25,1l1,6.5a14.632,14.632,0,0,1,4.25,2.5l6.25-2.5a1.113,1.113,0,0,1,1.5.5l5,8.75a1.206,1.206,0,0,1-.25,1.75l-5.25,4v5Zm-24.75,3.75a9.062,9.062,0,0,0,12.5,0,8.751,8.751,0,0,0-6.25-15,8.84,8.84,0,0,0-6.25,15Z" transform="translate(-39.091 -1149.4)"/>
</svg>
