<svg xmlns="http://www.w3.org/2000/svg" viewBox="0 0 23.409 32.405">
  <defs>
    <style>
      .cls-1 {
        fill: #c22034;
      }
    </style>
  </defs>
  <path id="ICON_Pin" data-name="ICON Pin" class="cls-1" d="M156.418,108.757a11.009,11.009,0,0,1,8.135-3.257,11.4,11.4,0,0,1,8.135,3.257,10.958,10.958,0,0,1,3.32,7.979,13.649,13.649,0,0,1-1.162,5.374,37.412,37.412,0,0,1-2.988,5.7c-1.162,1.791-2.324,3.42-3.32,5.048-1.162,1.628-1.992,2.768-2.822,3.745l-1.328,1.3c-.332-.326-.664-.814-1.328-1.466-.5-.651-1.494-1.791-2.822-3.582s-2.49-3.42-3.486-5.048a43.54,43.54,0,0,1-2.822-5.537,15.6,15.6,0,0,1-1.328-5.537C153.1,113.642,154.094,110.874,156.418,108.757Zm5.313,10.91a4.487,4.487,0,0,0,5.977,0,4.277,4.277,0,0,0,0-5.862,4.487,4.487,0,0,0-5.977,0,4.278,4.278,0,0,0,0,5.862Z" transform="translate(-152.6 -105.5)"/>
</svg>
