<svg xmlns="http://www.w3.org/2000/svg" viewBox="0 0 36.37 57.93">
  <defs>
    <style>
      .cls-1 {
        fill: #fff;
      }
    </style>
  </defs>
  <path id="ICON_-_Police" data-name="ICON - Police" class="cls-1" d="M7.714,7.556H28.965V1.417A1.411,1.411,0,0,0,27.548,0H6.139A1.605,1.605,0,0,0,4.88.787a3.234,3.234,0,0,0,0,1.732Zm0,0M6.139,17.631H8.5a10.237,10.237,0,0,0,20.464,0v-6.3H7.714L5.037,15.9c-.315.315-.315.63,0,1.1a1.593,1.593,0,0,0,1.1.63Zm0,0,23.3,14.01L9.917,57.93h25.03a1.411,1.411,0,0,0,1.417-1.417V40.142a8.454,8.454,0,0,0-6.926-8.5Zm0,0M8.658,31.484A8.735,8.735,0,0,0,0,40.142V56.356a1.411,1.411,0,0,0,1.417,1.417H3.778L23.455,31.326l-14.8.157Zm0,0"/>
</svg>
