<svg xmlns="http://www.w3.org/2000/svg" viewBox="0 0 100 100">
  <defs>
    <style>
      .cls-1 {
        fill: #737373;
      }
    </style>
  </defs>
  <path id="ICON_Watch" data-name="ICON Watch" class="cls-1" d="M127.4,224.4c10-10,21.5-14.5,35.5-14.5s25.5,5,35.5,14.5c10,10,14.5,21.5,14.5,35.5s-5,25.5-14.5,35.5c-10,10-21.5,14.5-35.5,14.5s-25.5-5-35.5-14.5c-10-10-14.5-21.5-14.5-35.5A48.662,48.662,0,0,1,127.4,224.4Zm7,63.5c8,8,17.5,12,28,12a37.84,37.84,0,0,0,28-12c8-8,12-17.5,12-28a37.063,37.063,0,0,0-12-28c-8-8-17.5-12-28-12a37.84,37.84,0,0,0-28,12c-8,8-12,17.5-12,28A43.082,43.082,0,0,0,134.4,287.9Zm31-53.5v26l22.5,13.5-4,6.5-26-16v-30Z" transform="translate(-112.9 -209.9)"/>
</svg>
