<svg xmlns="http://www.w3.org/2000/svg" viewBox="0 0 53.333 50">
  <defs>
    <style>
      .cls-1 {
        fill: #fff;
      }
    </style>
  </defs>
  <path id="ICON_-_Checkin" data-name="ICON - Checkin" class="cls-1" d="M50,10H40V3.333A3.34,3.34,0,0,0,36.667,0h-20a3.34,3.34,0,0,0-3.333,3.333V10h-10A3.34,3.34,0,0,0,0,13.333v30a3.34,3.34,0,0,0,3.333,3.333H5a3.333,3.333,0,0,0,6.667,0h30a3.333,3.333,0,0,0,6.667,0H50a3.34,3.34,0,0,0,3.333-3.333v-30A3.34,3.34,0,0,0,50,10ZM15,36.667a1.667,1.667,0,1,1-3.333,0V20A1.667,1.667,0,1,1,15,20ZM33.333,10H20V6.667H33.333Zm8.333,26.667a1.667,1.667,0,0,1-3.333,0V20a1.667,1.667,0,1,1,3.333,0Zm0,0"/>
</svg>
