<svg xmlns="http://www.w3.org/2000/svg" viewBox="0 0 48.442 40.882">
  <defs>
    <style>
      .cls-1 {
        fill: #c22034;
      }
    </style>
  </defs>
  <path id="ICON_Departure" data-name="ICON Departure" class="cls-1" d="M861.581,1232.646a2.981,2.981,0,0,1,1.667,2.1,3.192,3.192,0,0,1-.476,2.57,3.792,3.792,0,0,1-2.144,1.635c-9.289,2.336-16.91,4.438-23.1,6.074L824.9,1248.3l-3.811,1.168c-.476-.935-2.62-4.439-6.192-10.512l3.573-.935,4.764,3.5,11.908-3.037-9.765-16.82,4.525-1.168,16.434,14.951,12.623-3.271A4.792,4.792,0,0,1,861.581,1232.646Zm-45.014,24.062h45.252v4.672H816.567Z" transform="translate(-814.899 -1220.498)"/>
</svg>
