<svg xmlns="http://www.w3.org/2000/svg" viewBox="0 0 50 50">
  <defs>
    <style>
      .cls-1 {
        fill: #fff;
      }
    </style>
  </defs>
  <path id="ICON_FAQ" data-name="ICON FAQ" class="cls-1" d="M24.656,0A25,25,0,1,0,49.993,24.656,25.02,25.02,0,0,0,24.656,0Zm-.068,40.213h-.136a3.635,3.635,0,0,1,.136-7.268h.136a3.635,3.635,0,1,1-.136,7.268Zm8.966-17.729a18.416,18.416,0,0,1-2.989,2.649l-1.494,1.087a4.7,4.7,0,0,0-1.562,1.9,4.061,4.061,0,0,0-.2,1.562v.272H21.464v-.475c.068-2.038.136-3.193.951-4.211A21.627,21.627,0,0,1,26.762,21.8a7.205,7.205,0,0,0,1.019-1.019,3.614,3.614,0,0,0,.883-2.174,4.269,4.269,0,0,0-.815-2.513A3.287,3.287,0,0,0,25,15.011a3.148,3.148,0,0,0-2.921,1.359,5.241,5.241,0,0,0-.883,2.921v.272H15.214V19.29c.136-3.668,1.494-6.317,3.872-7.88a10.549,10.549,0,0,1,5.638-1.494,11.816,11.816,0,0,1,7.268,2.106,7.234,7.234,0,0,1,2.921,6.249,6.764,6.764,0,0,1-1.359,4.211Zm0,0" transform="translate(0.004 0.004)"/>
</svg>
