<svg xmlns="http://www.w3.org/2000/svg" viewBox="0 0 58.112 50">
  <defs>
    <style>
      .cls-1 {
        fill: #fff;
      }
    </style>
  </defs>
  <path id="ICON_-_Boarding" data-name="ICON - Boarding" class="cls-1" d="M870.9,1235.355a3.635,3.635,0,0,1,2,2.571,3.966,3.966,0,0,1-.571,3.143,4.561,4.561,0,0,1-2.571,2c-11.143,2.857-20.285,5.429-27.714,7.429l-15.143,4-4.571,1.429c-.571-1.143-3.143-5.428-7.428-12.857l4.286-1.143,5.714,4.286,14.286-3.714-11.714-20.571,5.428-1.429,19.714,18.286,15.143-4A5.653,5.653,0,0,1,870.9,1235.355Zm-54,29.429h54.285v5.714H816.9Z" transform="translate(-814.899 -1220.498)"/>
</svg>
