<svg xmlns="http://www.w3.org/2000/svg" xmlns:xlink="http://www.w3.org/1999/xlink" viewBox="0 0 301.214 100">
  <defs>
    <style>
      .cls-1 {
        fill: #737373;
      }

      .cls-2 {
        clip-path: url(#clip-path);
      }
    </style>
    <clipPath id="clip-path">
      <path id="Path_4" data-name="Path 4" class="cls-1" d="M0-11.637H56.475V40.4H0Z" transform="translate(0 11.637)"/>
    </clipPath>
  </defs>
  <g id="Icons" transform="translate(-375 -1034)">
    <path id="Smartphone" class="cls-1" d="M51.429,0H6.786A7.025,7.025,0,0,0,0,6.786V93.214A7.025,7.025,0,0,0,6.786,100H51.429a7.025,7.025,0,0,0,6.786-6.786V6.786A7.025,7.025,0,0,0,51.429,0ZM21.786,5H36.071a.768.768,0,0,1,.714.714.768.768,0,0,1-.714.714H21.786a.768.768,0,0,1-.714-.714A.768.768,0,0,1,21.786,5Zm7.143,91.786a3.214,3.214,0,1,1,3.214-3.214c.357,1.429-1.071,3.214-3.214,3.214ZM53.214,87.5H4.643V10.714H53.214V87.5Zm0,0" transform="translate(618 1034)"/>
    <g id="Arrow" class="cls-2" transform="translate(512 1058)">
      <g id="Group_2" data-name="Group 2" transform="translate(0 0.001)">
        <path id="Path_3" data-name="Path 3" class="cls-1" d="M22.211,7.654V-.359a1.843,1.843,0,0,1,3.148-1.3L49.536,22.5a1.843,1.843,0,0,1,0,2.607L25.363,49.284a1.846,1.846,0,0,1-3.152-1.3V39.974a1.847,1.847,0,0,0-1.847-1.847H-4.551A1.846,1.846,0,0,1-6.4,36.285V11.343A1.843,1.843,0,0,1-4.551,9.5H20.364a1.847,1.847,0,0,0,1.847-1.847" transform="translate(6.398 2.205)"/>
      </g>
    </g>
    <path id="Flight" class="cls-1" d="M898.9,1242.784a5.452,5.452,0,0,1,3,3.857,5.949,5.949,0,0,1-.857,4.714,6.841,6.841,0,0,1-3.857,3c-16.714,4.286-30.428,8.143-41.571,11.143l-22.714,6-6.857,2.143c-.857-1.714-4.714-8.143-11.143-19.285l6.428-1.715,8.572,6.428,21.428-5.571-17.571-30.857,8.143-2.143,29.571,27.429,22.714-6C895.9,1241.927,897.613,1241.927,898.9,1242.784Zm-81,44.143h81.428v8.571H817.9Z" transform="translate(-439.899 -174)"/>
  </g>
</svg>
