<svg id="Loading_Icon" data-name="Loading Icon" xmlns="http://www.w3.org/2000/svg" viewBox="0 0 150 150">
  <defs>
    <style>
      .cls-1 {
        fill: #d3d3d3;
      }

      .cls-2 {
        fill: #c4c4c4;
      }

      .cls-3 {
        fill: #b4b4b4;
      }

      .cls-4 {
        fill: #ababab;
      }

      .cls-5 {
        fill: #a2a2a2;
      }

      .cls-6 {
        fill: #969696;
      }

      .cls-7 {
        fill: #898989;
      }

      .cls-8 {
        fill: #868686;
      }

      .cls-9 {
        fill: gray;
      }

      .cls-10 {
        fill: #fbfbfb;
      }

      .cls-11 {
        fill: #f5f5f5;
      }

      .cls-12 {
        fill: #e9e9e9;
      }
    </style>
  </defs>
  <path id="Load_1" data-name="Load 1" class="cls-1" d="M231.258,27.823A7.129,7.129,0,0,1,224,20.565V7.258a7.258,7.258,0,0,1,14.516,0V20.565A7.279,7.279,0,0,1,231.258,27.823Z" transform="translate(-156.258)"/>
  <path id="Load_2" data-name="Load 2" class="cls-2" d="M321.76,56.389a6.827,6.827,0,0,1-3.629-.968,7.407,7.407,0,0,1-2.661-9.919L322,34.131a7.262,7.262,0,0,1,12.581,7.258L328.05,52.76A7.859,7.859,0,0,1,321.76,56.389Z" transform="translate(-219.421 -21.308)"/>
  <path id="Load_3" data-name="Load 3" class="cls-3" d="M387.36,133.15a7.291,7.291,0,0,1-6.29-3.629,7.407,7.407,0,0,1,2.661-9.919l11.371-6.532a7.262,7.262,0,0,1,7.258,12.581l-11.371,6.532A6.828,6.828,0,0,1,387.36,133.15Z" transform="translate(-265.182 -78.231)"/>
  <path id="Load_4" data-name="Load 4" class="cls-4" d="M424.565,238.516H411.258a7.258,7.258,0,1,1,0-14.516h13.306a7.258,7.258,0,0,1,0,14.516Z" transform="translate(-281.823 -156.258)"/>
  <path id="Load_5" data-name="Load 5" class="cls-5" d="M398.973,335.55a6.827,6.827,0,0,1-3.629-.968l-11.613-6.532a7.262,7.262,0,1,1,7.258-12.581L402.36,322a7.407,7.407,0,0,1,2.661,9.919A6.652,6.652,0,0,1,398.973,335.55Z" transform="translate(-265.182 -219.421)"/>
  <path id="Load_6" data-name="Load 6" class="cls-6" d="M328.292,405.989A7.291,7.291,0,0,1,322,402.36l-6.532-11.371a7.262,7.262,0,1,1,12.581-7.258l6.532,11.371a7.407,7.407,0,0,1-2.661,9.919A6.827,6.827,0,0,1,328.292,405.989Z" transform="translate(-219.421 -265.182)"/>
  <path id="Load_7" data-name="Load 7" class="cls-7" d="M231.258,431.823A7.129,7.129,0,0,1,224,424.565V411.258a7.258,7.258,0,1,1,14.516,0v13.306A7.129,7.129,0,0,1,231.258,431.823Z" transform="translate(-156.258 -281.823)"/>
  <path id="Load_8" data-name="Load 8" class="cls-8" d="M119.36,405.989a6.827,6.827,0,0,1-3.629-.968,7.407,7.407,0,0,1-2.661-9.919l6.532-11.371a7.262,7.262,0,1,1,12.581,7.258L125.65,402.36A7.291,7.291,0,0,1,119.36,405.989Z" transform="translate(-78.231 -265.182)"/>
  <path id="Load_9" data-name="Load 9" class="cls-9" d="M36.96,335.55a7.291,7.291,0,0,1-6.29-3.629A7.407,7.407,0,0,1,33.331,322L44.7,315.469A7.262,7.262,0,1,1,51.96,328.05l-11.371,6.532A5.831,5.831,0,0,1,36.96,335.55Z" transform="translate(-20.75 -219.421)"/>
  <path id="Load_10" data-name="Load 10" class="cls-10" d="M20.565,238.516H7.258a7.258,7.258,0,0,1,0-14.516H20.565a7.129,7.129,0,0,1,7.258,7.258A7.279,7.279,0,0,1,20.565,238.516Z" transform="translate(0 -156.258)"/>
  <path id="Load_11" data-name="Load 11" class="cls-11" d="M49.131,133.15a6.827,6.827,0,0,1-3.629-.968L34.131,125.65a7.262,7.262,0,1,1,7.258-12.581L52.76,119.6a7.407,7.407,0,0,1,2.661,9.919A7.291,7.291,0,0,1,49.131,133.15Z" transform="translate(-21.308 -78.231)"/>
  <path id="Load_12" data-name="Load 12" class="cls-12" d="M125.892,56.389a7.291,7.291,0,0,1-6.29-3.629l-6.532-11.371a7.262,7.262,0,1,1,12.581-7.258L132.182,45.5a7.407,7.407,0,0,1-2.661,9.919A8.969,8.969,0,0,1,125.892,56.389Z" transform="translate(-78.231 -21.308)"/>
</svg>
