<svg xmlns="http://www.w3.org/2000/svg" viewBox="0 0 150 143.315">
  <defs>
    <style>
      .cls-1 {
        fill: #c22034;
      }
    </style>
  </defs>
  <path id="LOGO_RTI_-_Mini" data-name="LOGO RTI - Mini" class="cls-1" d="M72.07,115.254H70.18c-1.8,0-2.64-.24-2.64-2.25v-1.74c0-1.59.66-2.19,2.19-2.19h2.34a1.987,1.987,0,0,1,2.01,2.19V113C74.079,114.384,73.63,115.254,72.07,115.254Zm0,27.416H70.18c-1.8,0-2.64-.24-2.64-2.25V120.983c0-1.59.66-2.19,2.19-2.19h2.34a1.987,1.987,0,0,1,2.01,2.19v19.437C74.079,141.83,73.63,142.67,72.07,142.67Zm26.186,0c-1.74,0-2.64-.21-2.64-2.19V127.552c0-.81.06-2.85-.36-3.539a1.614,1.614,0,0,0-1.56-.75c-2.43,0-4.289,1.29-6.149,2.73v14.458c0,2.64-1.71,2.19-3.749,2.19-1.74,0-2.64-.21-2.64-2.19V120.893c0-1.56.66-2.13,2.19-2.13H85.6c1.11,0,1.44.54,1.71,1.56a12.226,12.226,0,0,1,6.989-2.28c4.529,0,7.679,2.19,7.679,6.929v15.508C102.006,143.09,100.266,142.67,98.256,142.67Zm24.207-28.916a14.922,14.922,0,0,1-1.86-.3,21.473,21.473,0,0,0-2.4-.15c-.54,0-1.44-.06-1.8.51-.51.75-.36,4.2-.36,4.979h4.979c1.11,0,1.65.21,1.65,1.41v2.01c0,1.44-.36,1.89-1.8,1.89h-4.829v16.348c0,1.29-.21,2.25-1.74,2.25h-3.15c-1.35,0-1.5-.81-1.5-1.95V124.1h-1.5c-1.11,0-1.2-.84-1.2-1.74v-2.13c0-1.74,1.41-1.41,2.7-1.41v-2.01c0-2.1.06-4.139,1.29-5.879,2.04-2.79,5.4-2.94,8.579-2.94.99,0,3.48-.06,4.139.96a1.814,1.814,0,0,1,.24,1.05v.36C123.932,111.355,123.932,113.754,122.463,113.754ZM138.6,143.33c-8.339,0-11.458-4.8-11.458-12.628,0-7.889,3.09-12.658,11.458-12.658,8.429,0,11.428,4.8,11.428,12.658C150.029,138.591,147,143.33,138.6,143.33Zm4.109-18.417c-.9-1.65-2.4-1.59-4.079-1.59-1.71,0-3.18-.06-4.079,1.59a13.615,13.615,0,0,0-.96,5.789c0,1.74.09,4.229.96,5.789.9,1.59,2.43,1.56,4.079,1.56s3.18.06,4.079-1.56c.84-1.56.9-4.079.9-5.789C143.61,129.022,143.55,126.473,142.71,124.913ZM24.137,72.21c-2.49,0-5.009-.06-7.5-.09V98.247c0,2.76-2.4,2.25-4.409,2.25-1.68,0-2.46-.45-2.46-2.25V72.12c-2.49.06-5.069.09-7.559.09-2.55,0-2.16-1.95-2.16-3.779,0-1.47.72-2.1,2.16-2.1H24.137c2.46,0,2.19,1.59,2.19,3.48C26.356,71.4,25.876,72.21,24.137,72.21Zm30.926,28.256H52a3.4,3.4,0,0,1-3.12-1.38l-8.7-11.038h-1.59V98.217c0,2.76-2.31,2.25-4.349,2.25-1.68,0-2.49-.45-2.49-2.25V68.431c0-1.74.96-2.1,2.49-2.1h9.449c3.42,0,6.179-.21,8.729,2.4,2.31,2.34,2.67,6.449,2.67,9.569,0,4.8-1.59,8.789-6.809,9.509l7.829,9.509a2.828,2.828,0,0,1,.72,1.8C56.862,100.106,55.992,100.466,55.062,100.466Zm-8.129-27.9A12.085,12.085,0,0,0,43,72.15c-1.47,0-2.91.06-4.409.09V82.2h5.789c3.48,0,3.929-1.11,3.929-4.349C48.313,76.59,48.283,73.29,46.933,72.57Zm41.6,27.9h-2.82a2.234,2.234,0,0,1-2.4-1.8l-2.25-6.389q-5.984.135-11.968,0l-2.04,6.029c-.93,2.76-2.31,2.16-4.949,2.16-.96,0-1.98-.06-1.98-1.23a6.24,6.24,0,0,1,.42-1.59L71.02,68.4c1.02-2.82,2.4-2.31,5.1-2.31,1.8,0,2.4.6,3.03,2.25L90.187,98.127a2.517,2.517,0,0,1,.21.78C90.4,100.076,89.557,100.466,88.537,100.466Zm-13.5-25.5L70.96,87.028h8.189Zm40.044,25.916a53.969,53.969,0,0,1-5.819.27c-12.328,0-14.728-6.029-14.728-17.338,0-5.819.42-14.008,6.689-16.648A21.533,21.533,0,0,1,109.264,66a53.616,53.616,0,0,1,5.819.27c1.29.09,2.67.21,2.67,1.8v1.68c0,1.59-.15,2.46-1.95,2.46-1.83,0-3.689-.27-5.519-.27a16.5,16.5,0,0,0-5.579.72c-3.569,1.53-3.12,8.069-3.12,11.248,0,3.989-.3,10.109,4.739,11.1a19.4,19.4,0,0,0,3.929.27c1.83,0,3.689-.27,5.519-.27,2.49,0,1.95,2.19,1.95,4.139C117.723,100.676,116.343,100.766,115.084,100.886Zm33.055-.42H144.6a3.475,3.475,0,0,1-3.03-1.32L130.981,87.808V98.247c0,2.76-2.25,2.25-4.349,2.25-1.68,0-2.49-.45-2.49-2.25V68.461c0-1.74.96-2.1,2.49-2.1,1.95,0,4.349-.57,4.349,2.1V80.069L141.51,67.711a3.144,3.144,0,0,1,2.85-1.38h2.61c.93,0,1.89.36,1.89,1.44a2.272,2.272,0,0,1-.57,1.32L135.571,83.4l13.588,13.858a2.565,2.565,0,0,1,.81,1.74C150.029,100.076,149.1,100.466,148.139,100.466ZM35.715,52.623H31.036c-2.19,0-3.36-.39-4.769-2.1L12.948,33.606h-2.4V49.174c0,4.229-3.51,3.45-6.659,3.45-2.58,0-3.839-.72-3.839-3.45V3.55C.05.91,1.55.341,3.89.341H18.347c5.249,0,9.479-.3,13.378,3.689C35.235,7.629,35.8,13.9,35.8,18.668c0,7.349-2.43,13.468-10.409,14.548L37.365,47.764a4.421,4.421,0,0,1,1.11,2.73C38.475,52.053,37.125,52.623,35.715,52.623ZM23.3,9.909c-1.26-.63-4.559-.63-6.029-.63-2.28,0-4.469.09-6.719.15V24.7H19.4c5.309,0,6.029-1.71,6.029-6.659C25.4,16.088,25.306,10.989,23.3,9.909ZM86.978,52.623H82.688c-2.1,0-2.97-.87-3.689-2.73l-3.45-9.779c-6.089.15-12.208.15-18.3,0l-3.12,9.239c-1.41,4.229-3.509,3.3-7.589,3.3-1.5,0-3.06-.09-3.06-1.89a9.081,9.081,0,0,1,.63-2.43L60.162,3.58C61.721-.709,63.851.071,67.99.071c2.73,0,3.689.93,4.619,3.45L89.5,49.144a3.372,3.372,0,0,1,.3,1.17C89.8,51.993,88.537,52.623,86.978,52.623ZM66.311,13.569,60.042,32.046H72.55ZM142.92,52.623c-2.34,0-3.21-1.17-3.36-3.36l-2.04-31.855c-.69,1.95-1.32,3.989-2.04,6.029-2.28,6.569-4.529,13.918-7.2,20.277-1.41,3.36-3.06,3.06-6.329,3.06-2.43,0-3.36-.93-4.229-3.06-2.73-6.659-4.919-13.528-7.349-20.277-.69-1.95-1.26-4.079-1.95-6.029l-2.04,31.855c-.24,4.139-3.45,3.36-6.659,3.36-2.19,0-3.839-.54-3.839-3.06v-.54L99.876,3.49c.24-2.49,1.56-3.12,3.839-3.12H108c2.04,0,3.21.54,3.989,2.43,1.5,3.36,2.67,6.959,3.9,10.409,2.34,6.569,4.679,13.138,7.049,19.647,2.34-6.479,4.709-13.078,7.049-19.647,1.26-3.45,2.43-7.049,3.9-10.409.78-1.89,1.95-2.43,3.989-2.43h4.289c2.28,0,3.6.63,3.839,3.12l4.019,45.534v.54C150.029,53.463,145.5,52.623,142.92,52.623Z" transform="translate(-0.029 -0.015)"/>
</svg>
