<svg xmlns="http://www.w3.org/2000/svg" xmlns:xlink="http://www.w3.org/1999/xlink" viewBox="0 0 530.071 507.785">
  <defs>
    <style>
      .cls-1 {
        fill: #fff;
      }

      .cls-2 {
        filter: url(#LOGO_RTI_-_Giant);
      }
    </style>
    <filter id="LOGO_RTI_-_Giant" x="0" y="0" width="530.071" height="507.785" filterUnits="userSpaceOnUse">
      <feOffset dx="5" dy="5" input="SourceAlpha"/>
      <feGaussianBlur stdDeviation="5" result="blur"/>
      <feFlood flood-opacity="0.161"/>
      <feComposite operator="in" in2="blur"/>
      <feComposite in="SourceGraphic"/>
    </filter>
  </defs>
  <g class="cls-2" transform="matrix(1, 0, 0, 1, 0, 0)">
    <path id="LOGO_RTI_-_Giant-2" data-name="LOGO RTI - Giant" class="cls-1" d="M240.2,384.2h-6.3c-6,0-8.8-.8-8.8-7.5v-5.8c0-5.3,2.2-7.3,7.3-7.3h7.8c4.3,0,6.7,3.2,6.7,7.3v5.8C246.9,381.3,245.4,384.2,240.2,384.2Zm0,91.4h-6.3c-6,0-8.8-.8-8.8-7.5V403.3c0-5.3,2.2-7.3,7.3-7.3h7.8c4.3,0,6.7,3.2,6.7,7.3v64.8C246.9,472.8,245.4,475.6,240.2,475.6Zm87.3,0c-5.8,0-8.8-.7-8.8-7.3V425.2c0-2.7.2-9.5-1.2-11.8-1.2-2-3-2.5-5.2-2.5-8.1,0-14.3,4.3-20.5,9.1v48.2c0,8.8-5.7,7.3-12.5,7.3-5.8,0-8.8-.7-8.8-7.3V403c0-5.2,2.2-7.1,7.3-7.1h7.5c3.7,0,4.8,1.8,5.7,5.2,7.3-4.8,14.5-7.6,23.3-7.6,15.1,0,25.6,7.3,25.6,23.1v51.7C340,477,334.2,475.6,327.5,475.6Zm80.7-96.4c-2,0-4-.7-6.2-1a71.587,71.587,0,0,0-8-.5c-1.8,0-4.8-.2-6,1.7-1.7,2.5-1.2,14-1.2,16.6h16.6c3.7,0,5.5.7,5.5,4.7v6.7c0,4.8-1.2,6.3-6,6.3H386.8v54.5c0,4.3-.7,7.5-5.8,7.5H370.5c-4.5,0-5-2.7-5-6.5V413.7h-5c-3.7,0-4-2.8-4-5.8v-7.1c0-5.8,4.7-4.7,9-4.7v-6.7c0-7,.2-13.8,4.3-19.6,6.8-9.3,18-9.8,28.6-9.8,3.3,0,11.6-.2,13.8,3.2a6.046,6.046,0,0,1,.8,3.5v1.2C413.1,371.2,413.1,379.2,408.2,379.2ZM462,477.8c-27.8,0-38.2-16-38.2-42.1,0-26.3,10.3-42.2,38.2-42.2,28.1,0,38.1,16,38.1,42.2C500.1,462,490,477.8,462,477.8Zm13.7-61.4c-3-5.5-8-5.3-13.6-5.3-5.7,0-10.6-.2-13.6,5.3-2.8,5.3-3.2,13.5-3.2,19.3s.3,14.1,3.2,19.3c3,5.3,8.1,5.2,13.6,5.2s10.6.2,13.6-5.2c2.8-5.2,3-13.6,3-19.3C478.7,430.1,478.5,421.6,475.7,416.4ZM80.4,240.7c-8.3,0-16.7-.2-25-.3v87.1c0,9.2-8,7.5-14.7,7.5-5.6,0-8.2-1.5-8.2-7.5V240.4c-8.3.2-16.9.3-25.2.3-8.5,0-7.2-6.5-7.2-12.6,0-4.9,2.4-7,7.2-7H80.4c8.2,0,7.3,5.3,7.3,11.6C87.8,238,86.2,240.7,80.4,240.7Zm103.1,94.2H173.3c-4.8,0-7.3-.9-10.4-4.6l-29-36.8h-5.3v33.9c0,9.2-7.7,7.5-14.5,7.5-5.6,0-8.3-1.5-8.3-7.5V228.1c0-5.8,3.2-7,8.3-7h31.5c11.4,0,20.6-.7,29.1,8,7.7,7.8,8.9,21.5,8.9,31.9,0,16-5.3,29.3-22.7,31.7L187,324.4a9.427,9.427,0,0,1,2.4,6C189.5,333.7,186.6,334.9,183.5,334.9Zm-27.1-93c-2.7-1.4-9.9-1.4-13.1-1.4-4.9,0-9.7.2-14.7.3V274h19.3c11.6,0,13.1-3.7,13.1-14.5C161,255.3,160.9,244.3,156.4,241.9Zm138.7,93h-9.4c-4.6,0-6.5-1.9-8-6l-7.5-21.3q-19.95.45-39.9,0l-6.8,20.1c-3.1,9.2-7.7,7.2-16.5,7.2-3.2,0-6.6-.2-6.6-4.1a20.8,20.8,0,0,1,1.4-5.3L236.7,228c3.4-9.4,8-7.7,17-7.7,6,0,8,2,10.1,7.5l36.8,99.3a8.393,8.393,0,0,1,.7,2.6C301.3,333.6,298.5,334.9,295.1,334.9Zm-45-85-13.6,40.2h27.3Zm133.5,86.4a179.926,179.926,0,0,1-19.4.9c-41.1,0-49.1-20.1-49.1-57.8,0-19.4,1.4-46.7,22.3-55.5,8.2-3.4,18.1-3.9,26.8-3.9a178.746,178.746,0,0,1,19.4.9c4.3.3,8.9.7,8.9,6v5.6c0,5.3-.5,8.2-6.5,8.2-6.1,0-12.3-.9-18.4-.9-5.1,0-14,.3-18.6,2.4-11.9,5.1-10.4,26.9-10.4,37.5,0,13.3-1,33.7,15.8,37a64.664,64.664,0,0,0,13.1.9c6.1,0,12.3-.9,18.4-.9,8.3,0,6.5,7.3,6.5,13.8C392.4,335.6,387.8,335.9,383.6,336.3Zm110.2-1.4H482c-4.6,0-7-1-10.1-4.4l-35.3-37.8v34.8c0,9.2-7.5,7.5-14.5,7.5-5.6,0-8.3-1.5-8.3-7.5V228.2c0-5.8,3.2-7,8.3-7,6.5,0,14.5-1.9,14.5,7v38.7l35.1-41.2c2.9-3.4,4.9-4.6,9.5-4.6h8.7c3.1,0,6.3,1.2,6.3,4.8a7.575,7.575,0,0,1-1.9,4.4L451.9,278l45.3,46.2a8.553,8.553,0,0,1,2.7,5.8C500.1,333.6,497,334.9,493.8,334.9ZM119,175.4H103.4c-7.3,0-11.2-1.3-15.9-7L43.1,112h-8v51.9c0,14.1-11.7,11.5-22.2,11.5C4.3,175.4.1,173,.1,163.9V11.8C.1,3,5.1,1.1,12.9,1.1H61.1c17.5,0,31.6-1,44.6,12.3,11.7,12,13.6,32.9,13.6,48.8,0,24.5-8.1,44.9-34.7,48.5l39.9,48.5a14.739,14.739,0,0,1,3.7,9.1C128.2,173.5,123.7,175.4,119,175.4ZM77.6,33c-4.2-2.1-15.2-2.1-20.1-2.1-7.6,0-14.9.3-22.4.5V82.3H64.6c17.7,0,20.1-5.7,20.1-22.2C84.6,53.6,84.3,36.6,77.6,33ZM289.9,175.4H275.6c-7,0-9.9-2.9-12.3-9.1l-11.5-32.6c-20.3.5-40.7.5-61,0l-10.4,30.8c-4.7,14.1-11.7,11-25.3,11-5,0-10.2-.3-10.2-6.3,0-2.1,1.3-6,2.1-8.1L200.5,11.9C205.7-2.4,212.8.2,226.6.2c9.1,0,12.3,3.1,15.4,11.5l56.3,152.1a11.241,11.241,0,0,1,1,3.9C299.3,173.3,295.1,175.4,289.9,175.4ZM221,45.2l-20.9,61.6h41.7ZM476.4,175.4c-7.8,0-10.7-3.9-11.2-11.2L458.4,58c-2.3,6.5-4.4,13.3-6.8,20.1-7.6,21.9-15.1,46.4-24,67.6-4.7,11.2-10.2,10.2-21.1,10.2-8.1,0-11.2-3.1-14.1-10.2-9.1-22.2-16.4-45.1-24.5-67.6-2.3-6.5-4.2-13.6-6.5-20.1l-6.8,106.2c-.8,13.8-11.5,11.2-22.2,11.2-7.3,0-12.8-1.8-12.8-10.2v-1.8L332.9,11.6c.8-8.3,5.2-10.4,12.8-10.4H360c6.8,0,10.7,1.8,13.3,8.1,5,11.2,8.9,23.2,13,34.7,7.8,21.9,15.6,43.8,23.5,65.5,7.8-21.6,15.7-43.6,23.5-65.5,4.2-11.5,8.1-23.5,13-34.7,2.6-6.3,6.5-8.1,13.3-8.1h14.3c7.6,0,12,2.1,12.8,10.4l13.4,151.8v1.8C500.1,178.2,485,175.4,476.4,175.4Z" transform="translate(9.97 9.98)"/>
  </g>
</svg>
