<svg xmlns="http://www.w3.org/2000/svg" xmlns:xlink="http://www.w3.org/1999/xlink" viewBox="0 0 280 268.858">
  <defs>
    <style>
      .cls-1 {
        fill: #fff;
      }

      .cls-2 {
        filter: url(#LOGO_RTI_-_Small_white);
      }
    </style>
    <filter id="LOGO_RTI_-_Small_white" x="0" y="0" width="280" height="268.858" filterUnits="userSpaceOnUse">
      <feOffset dx="5" dy="5" input="SourceAlpha"/>
      <feGaussianBlur stdDeviation="5" result="blur"/>
      <feFlood flood-opacity="0.161"/>
      <feComposite operator="in" in2="blur"/>
      <feComposite in="SourceGraphic"/>
    </filter>
  </defs>
  <g class="cls-2" transform="matrix(1, 0, 0, 1, 0, 0)">
    <path id="LOGO_RTI_-_Small_white-2" data-name="LOGO RTI - Small white" class="cls-1" d="M120.1,192.08h-3.15c-3,0-4.4-.4-4.4-3.749v-2.9c0-2.65,1.1-3.649,3.649-3.649h3.9c2.15,0,3.35,1.6,3.35,3.649v2.9C123.447,190.63,122.7,192.08,120.1,192.08Zm0,45.693h-3.15c-3,0-4.4-.4-4.4-3.749v-32.4c0-2.65,1.1-3.649,3.649-3.649h3.9c2.15,0,3.35,1.6,3.35,3.649v32.4C123.447,236.374,122.7,237.774,120.1,237.774Zm43.644,0c-2.9,0-4.4-.35-4.4-3.649V212.577c0-1.35.1-4.749-.6-5.9a2.691,2.691,0,0,0-2.6-1.25c-4.049,0-7.149,2.15-10.249,4.549v24.1c0,4.4-2.85,3.649-6.249,3.649-2.9,0-4.4-.35-4.4-3.649v-32.6c0-2.6,1.1-3.549,3.649-3.549h3.749c1.85,0,2.4.9,2.85,2.6a20.377,20.377,0,0,1,11.648-3.8c7.549,0,12.8,3.649,12.8,11.548v25.846C169.99,238.474,167.091,237.774,163.741,237.774Zm40.344-48.193a24.869,24.869,0,0,1-3.1-.5,35.79,35.79,0,0,0-4-.25c-.9,0-2.4-.1-3,.85-.85,1.25-.6,7-.6,8.3h8.3c1.85,0,2.75.35,2.75,2.35v3.35c0,2.4-.6,3.15-3,3.15h-8.049v27.246c0,2.15-.35,3.749-2.9,3.749h-5.249c-2.25,0-2.5-1.35-2.5-3.25V206.828h-2.5c-1.85,0-2-1.4-2-2.9v-3.549c0-2.9,2.35-2.35,4.5-2.35v-3.35c0-3.5.1-6.9,2.15-9.8,3.4-4.649,9-4.9,14.3-4.9,1.65,0,5.8-.1,6.9,1.6a3.023,3.023,0,0,1,.4,1.75v.6C206.535,185.581,206.535,189.581,204.085,189.581Zm26.9,49.293c-13.9,0-19.1-8-19.1-21.047,0-13.148,5.149-21.1,19.1-21.1,14.048,0,19.047,8,19.047,21.1C250.029,230.975,244.979,238.873,230.981,238.873Zm6.849-30.7c-1.5-2.75-4-2.65-6.8-2.65-2.85,0-5.3-.1-6.8,2.65-1.4,2.65-1.6,6.749-1.6,9.649s.15,7.049,1.6,9.649c1.5,2.65,4.049,2.6,6.8,2.6s5.3.1,6.8-2.6c1.4-2.6,1.5-6.8,1.5-9.649C239.33,215.027,239.23,210.777,237.83,208.178ZM40.209,120.34c-4.149,0-8.349-.1-12.5-.15v43.544c0,4.6-4,3.749-7.349,3.749-2.8,0-4.1-.75-4.1-3.749V120.19c-4.149.1-8.449.15-12.6.15-4.249,0-3.6-3.25-3.6-6.3,0-2.45,1.2-3.5,3.6-3.5H40.209c4.1,0,3.649,2.65,3.649,5.8C43.908,118.991,43.108,120.34,40.209,120.34Zm51.543,47.093h-5.1c-2.4,0-3.649-.45-5.2-2.3l-14.5-18.4h-2.65v16.948c0,4.6-3.849,3.749-7.249,3.749-2.8,0-4.149-.75-4.149-3.749V114.041c0-2.9,1.6-3.5,4.149-3.5H72.8c5.7,0,10.3-.35,14.548,4,3.849,3.9,4.449,10.748,4.449,15.948,0,8-2.65,14.648-11.348,15.848L93.5,162.184a4.713,4.713,0,0,1,1.2,3C94.751,166.834,93.3,167.434,91.751,167.434ZM78.2,120.94c-1.35-.7-4.949-.7-6.549-.7-2.45,0-4.849.1-7.349.15v16.6h9.649c5.8,0,6.549-1.85,6.549-7.249C80.5,127.639,80.453,122.14,78.2,120.94Zm69.34,46.493h-4.7c-2.3,0-3.25-.95-4-3L135.1,153.786q-9.974.225-19.947,0l-3.4,10.049c-1.55,4.6-3.849,3.6-8.249,3.6-1.6,0-3.3-.1-3.3-2.05a10.4,10.4,0,0,1,.7-2.65l17.448-48.743c1.7-4.7,4-3.849,8.5-3.849,3,0,4,1,5.049,3.749l18.4,49.643a4.2,4.2,0,0,1,.35,1.3C150.643,166.784,149.243,167.434,147.543,167.434Zm-22.5-42.494-6.8,20.1H131.9Zm66.74,43.194a89.949,89.949,0,0,1-9.7.45c-20.547,0-24.547-10.049-24.547-28.9,0-9.7.7-23.347,11.148-27.746,4.1-1.7,9.049-1.95,13.4-1.95a89.361,89.361,0,0,1,9.7.45c2.15.15,4.449.35,4.449,3v2.8c0,2.65-.25,4.1-3.25,4.1-3.05,0-6.149-.45-9.2-.45-2.55,0-7,.15-9.3,1.2-5.949,2.55-5.2,13.448-5.2,18.747,0,6.649-.5,16.848,7.9,18.5a32.327,32.327,0,0,0,6.549.45c3.05,0,6.149-.45,9.2-.45,4.149,0,3.25,3.649,3.25,6.9C196.186,167.784,193.887,167.934,191.787,168.134Zm55.092-.7h-5.9a5.791,5.791,0,0,1-5.049-2.2l-17.647-18.9v17.4c0,4.6-3.749,3.749-7.249,3.749-2.8,0-4.149-.75-4.149-3.749V114.091c0-2.9,1.6-3.5,4.149-3.5,3.25,0,7.249-.95,7.249,3.5v19.347l17.548-20.6a5.241,5.241,0,0,1,4.749-2.3h4.349c1.55,0,3.15.6,3.15,2.4a3.787,3.787,0,0,1-.95,2.2l-21.2,23.847,22.647,23.1a4.276,4.276,0,0,1,1.35,2.9C250.029,166.784,248.479,167.434,246.879,167.434ZM59.506,87.7h-7.8c-3.649,0-5.6-.65-7.949-3.5L21.561,56h-4V81.946c0,7.049-5.849,5.749-11.1,5.749-4.3,0-6.4-1.2-6.4-5.749V5.907c0-4.4,2.5-5.349,6.4-5.349h24.1c8.749,0,15.8-.5,22.3,6.149,5.849,6,6.8,16.448,6.8,24.4,0,12.248-4.049,22.447-17.348,24.247L62.255,79.6a7.368,7.368,0,0,1,1.85,4.549C64.105,86.745,61.856,87.7,59.506,87.7Zm-20.7-71.19c-2.1-1.05-7.6-1.05-10.049-1.05-3.8,0-7.449.15-11.2.25V41.152H32.31c8.849,0,10.049-2.85,10.049-11.1C42.308,26.8,42.158,18.3,38.809,16.505ZM144.944,87.7h-7.149c-3.5,0-4.949-1.45-6.149-4.549l-5.749-16.3c-10.149.25-20.347.25-30.5,0l-5.2,15.4c-2.35,7.049-5.849,5.5-12.648,5.5-2.5,0-5.1-.15-5.1-3.15a15.135,15.135,0,0,1,1.05-4.049L100.25,5.957C102.85-1.192,106.4.108,113.3.108c4.549,0,6.149,1.55,7.7,5.749L149.143,81.9a5.62,5.62,0,0,1,.5,1.95C149.643,86.645,147.543,87.7,144.944,87.7ZM110.5,22.6,100.05,53.4H120.9ZM238.18,87.7c-3.9,0-5.349-1.95-5.6-5.6L229.182,29c-1.15,3.25-2.2,6.649-3.4,10.049-3.8,10.948-7.549,23.2-12,33.8-2.35,5.6-5.1,5.1-10.548,5.1-4.049,0-5.6-1.55-7.049-5.1-4.549-11.1-8.2-22.547-12.248-33.8-1.15-3.25-2.1-6.8-3.25-10.049l-3.4,53.092c-.4,6.9-5.749,5.6-11.1,5.6-3.649,0-6.4-.9-6.4-5.1v-.9l6.649-75.889c.4-4.149,2.6-5.2,6.4-5.2h7.149c3.4,0,5.349.9,6.649,4.049,2.5,5.6,4.449,11.6,6.5,17.348,3.9,10.948,7.8,21.9,11.748,32.745,3.9-10.8,7.849-21.8,11.748-32.745,2.1-5.749,4.049-11.748,6.5-17.348,1.3-3.15,3.25-4.049,6.649-4.049h7.149c3.8,0,6,1.05,6.4,5.2l6.7,75.889v.9C250.029,89.095,242.48,87.7,238.18,87.7Z" transform="translate(9.97 9.98)"/>
  </g>
</svg>
