<svg xmlns="http://www.w3.org/2000/svg" viewBox="0 0 980 125">
  <defs>
    <style>
      .cls-1 {
        fill: #008b5f;
        stroke: #737373;
      }

      .cls-2 {
        stroke: none;
      }

      .cls-3 {
        fill: none;
      }
    </style>
  </defs>
  <g id="Status_card" data-name="Status card" class="cls-1">
    <path class="cls-2" d="M0,0H980a0,0,0,0,1,0,0V100a25,25,0,0,1-25,25H25A25,25,0,0,1,0,100V0A0,0,0,0,1,0,0Z"/>
    <path class="cls-3" d="M1,.5H979a.5.5,0,0,1,.5.5v99A24.5,24.5,0,0,1,955,124.5H25A24.5,24.5,0,0,1,.5,100V1A.5.5,0,0,1,1,.5Z"/>
  </g>
</svg>
