<svg xmlns="http://www.w3.org/2000/svg" xmlns:xlink="http://www.w3.org/1999/xlink" viewBox="0 0 103.25 60.554">
  <defs>
    <style>
      .cls-1 {
        fill: rgba(34,31,31,0.26);
        fill-rule: evenodd;
      }

      .cls-2 {
        fill: #f1f1f1;
        stroke: rgba(0,0,0,0);
        stroke-width: 0.5px;
      }

      .cls-3 {
        filter: url(#Switch_Button);
      }
    </style>
    <filter id="Switch_Button" x="0" y="0" width="60.554" height="60.554" filterUnits="userSpaceOnUse">
      <feOffset dy="2" input="SourceAlpha"/>
      <feGaussianBlur stdDeviation="1" result="blur"/>
      <feFlood flood-opacity="0.239"/>
      <feComposite operator="in" in2="blur"/>
      <feComposite in="SourceGraphic"/>
    </filter>
  </defs>
  <g id="Switch_OFF" data-name="Switch OFF" transform="translate(-705.75 -445.544)">
    <path id="Switch_Path" data-name="Switch Path" class="cls-1" d="M75.973,40.838H21.919A18.8,18.8,0,0,1,3,21.919,18.8,18.8,0,0,1,21.919,3H75.973A18.8,18.8,0,0,1,94.892,21.919,18.8,18.8,0,0,1,75.973,40.838Z" transform="translate(714.108 451.902)"/>
    <g class="cls-3" transform="matrix(1, 0, 0, 1, 705.75, 445.54)">
      <path id="Switch_Button-2" data-name="Switch Button" class="cls-2" d="M27.027,0A27.027,27.027,0,1,1,0,27.027,27.027,27.027,0,0,1,27.027,0Z" transform="translate(3.25 1.25)"/>
    </g>
  </g>
</svg>
